<?xml version="1.0" standalone="no"?>
<!DOCTYPE svg PUBLIC "-//W3C//DTD SVG 20010904//EN"
 "http://www.w3.org/TR/2001/REC-SVG-20010904/DTD/svg10.dtd">
<svg version="1.0" xmlns="http://www.w3.org/2000/svg"
 width="128.000000pt" height="128.000000pt" viewBox="0 0 128.000000 128.000000"
 preserveAspectRatio="xMidYMid meet">
<metadata>
Created by potrace 1.14, written by Peter Selinger 2001-2017
</metadata>
<g transform="translate(0.000000,128.000000) scale(0.100000,-0.100000)"
fill="#000000" stroke="none">
<path d="M1160 797 c-35 -17 -68 -47 -91 -84 -17 -26 -27 -33 -53 -33 -18 0
-48 -10 -67 -23 -30 -20 -34 -29 -37 -70 -2 -31 2 -55 12 -69 9 -12 16 -26 16
-30 0 -15 -63 -68 -80 -68 -27 0 -31 11 -8 29 15 13 19 23 13 40 -6 18 -13 22
-43 19 -36 -3 -37 -4 -40 -48 -4 -53 13 -70 70 -70 40 0 79 19 112 56 17 18
24 20 49 12 19 -7 32 -7 39 0 14 14 1 32 -23 32 -10 0 -19 7 -19 15 0 8 5 15
10 15 6 0 10 7 10 15 0 26 29 75 44 75 16 0 26 -21 26 -55 0 -17 -6 -25 -22
-27 -13 -2 -23 -9 -23 -17 0 -11 16 -14 75 -12 42 1 78 7 82 14 10 17 0 26
-24 19 -16 -4 -20 -1 -16 9 3 8 16 63 28 123 18 86 27 110 42 114 10 2 18 11
18 18 0 17 -64 18 -100 1z m-14 -87 c-3 -16 -9 -44 -12 -61 l-6 -31 -19 21
c-24 26 -24 28 7 68 31 41 37 42 30 3z m-129 -87 c-8 -16 -23 -45 -33 -65
l-18 -38 -13 24 c-16 30 -4 67 29 90 37 26 52 21 35 -11z"/>
<path d="M90 781 c0 -14 5 -18 20 -14 14 4 19 1 16 -8 -2 -8 -14 -62 -26 -121
-21 -97 -25 -108 -45 -108 -27 0 -38 -10 -26 -24 14 -17 131 -8 131 10 0 8 -9
14 -21 14 -15 0 -19 5 -15 18 2 9 10 44 16 77 17 83 25 95 38 56 6 -17 8 -31
4 -31 -4 0 0 -5 8 -10 13 -8 13 -14 1 -42 -21 -53 -24 -77 -11 -93 16 -20 64
-19 84 1 9 8 16 11 16 5 0 -7 28 -11 74 -11 56 0 75 4 80 15 4 10 -1 15 -14
15 -25 0 -25 10 4 135 19 85 26 100 45 105 40 9 22 25 -32 28 l-53 3 -58 -61
c-31 -33 -61 -60 -65 -60 -5 0 -20 27 -34 60 l-26 60 -56 0 c-47 0 -55 -3 -55
-19z m265 -118 c-7 -32 -16 -75 -19 -95 -6 -32 -11 -38 -31 -38 -23 0 -25 3
-25 52 0 48 4 56 42 95 23 24 43 43 44 43 1 0 -4 -26 -11 -57z m-129 -141
c-12 -11 -18 7 -10 30 l8 23 4 -23 c2 -13 1 -26 -2 -30z"/>
<path d="M677 793 c-21 -5 -37 -42 -37 -83 0 -22 -6 -29 -27 -35 -45 -11 -74
-48 -75 -95 -1 -59 25 -82 96 -88 59 -5 66 -11 40 -36 -20 -20 -48 -20 -64 0
-8 8 -22 20 -32 25 -15 8 -18 6 -18 -11 0 -37 35 -60 91 -60 42 0 55 5 79 28
24 24 29 39 35 109 7 79 8 81 35 87 39 7 50 44 21 67 -12 10 -29 15 -36 12
-11 -4 -15 3 -15 25 0 47 -39 69 -93 55z m49 -45 c4 -6 -3 -20 -17 -31 -22
-17 -24 -18 -27 -3 -4 18 14 46 29 46 4 0 11 -5 15 -12z m-104 -170 c2 -19 9
-23 41 -23 40 0 51 -19 17 -30 -33 -10 -80 27 -80 64 0 21 19 11 22 -11z"/>
</g>
</svg>
