<?xml version="1.0" standalone="no"?>
<!DOCTYPE svg PUBLIC "-//W3C//DTD SVG 20010904//EN"
 "http://www.w3.org/TR/2001/REC-SVG-20010904/DTD/svg10.dtd">
<svg version="1.0" xmlns="http://www.w3.org/2000/svg"
 width="540.000000pt" height="540.000000pt" viewBox="0 0 540.000000 540.000000"
 preserveAspectRatio="xMidYMid meet">

<g transform="translate(0.000000,540.000000) scale(0.100000,-0.100000)"
fill="#3b1555" stroke="none">
<path d="M2491 5389 c-638 -49 -1241 -327 -1697 -783 -213 -214 -363 -421
-500 -691 -299 -593 -369 -1252 -203 -1900 163 -632 573 -1202 1131 -1572 135
-89 391 -218 548 -275 887 -324 1871 -164 2613 424 206 164 422 401 574 630
89 135 218 391 275 548 324 887 164 1871 -424 2613 -164 206 -401 422 -630
574 -135 89 -391 218 -548 275 -364 133 -754 187 -1139 157z m99 -179 c0 -5
-13 -10 -30 -10 -16 0 -30 5 -30 10 0 6 14 10 30 10 17 0 30 -4 30 -10z m78 3
c-10 -2 -26 -2 -35 0 -10 3 -2 5 17 5 19 0 27 -2 18 -5z m90 0 c-10 -2 -26 -2
-35 0 -10 3 -2 5 17 5 19 0 27 -2 18 -5z m102 -3 c0 -5 -11 -10 -24 -10 -14 0
-28 5 -31 10 -4 6 7 10 24 10 17 0 31 -4 31 -10z m-450 -10 c0 -5 -15 -9 -32
-9 l-33 1 30 8 c17 4 31 8 33 9 1 0 2 -3 2 -9z m78 3 c-10 -2 -26 -2 -35 0
-10 3 -2 5 17 5 19 0 27 -2 18 -5z m450 0 c-10 -2 -26 -2 -35 0 -10 3 -2 5 17
5 19 0 27 -2 18 -5z m102 -12 c0 -4 -13 -6 -30 -3 -16 2 -30 7 -30 11 0 4 14
6 30 3 17 -2 30 -7 30 -11z m-730 -11 c-36 -11 -52 -11 -45 0 3 6 21 10 38 9
31 -1 31 -1 7 -9z m820 0 c0 -12 -17 -12 -45 0 -17 7 -15 9 13 9 17 1 32 -3
32 -9z m-895 -10 c-3 -5 -18 -10 -33 -9 -24 0 -25 1 -7 9 28 12 47 12 40 0z
m971 0 c8 0 14 -4 14 -8 0 -5 -13 -7 -30 -4 -16 2 -30 9 -30 14 0 6 7 7 16 4
9 -3 22 -6 30 -6z m-1061 -20 c-3 -5 -18 -10 -33 -10 -21 0 -24 2 -12 10 20
13 53 13 45 0z m1150 0 c17 -7 15 -9 -12 -9 -17 -1 -35 4 -38 9 -7 12 22 12
50 0z m-1235 -20 c0 -5 -6 -10 -14 -10 -8 0 -21 -3 -30 -6 -9 -3 -16 -1 -16 4
0 9 9 13 53 21 4 0 7 -3 7 -9z m1308 4 c12 -4 22 -11 22 -16 0 -10 -39 -1 -54
13 -12 11 -1 11 32 3z m-1403 -34 c-11 -5 -29 -9 -40 -9 -17 -1 -17 1 -5 9 8
5 26 9 40 9 23 0 23 -1 5 -9z m1505 0 c12 -8 12 -10 -5 -10 -11 0 -27 5 -35
10 -12 8 -12 10 5 10 11 0 27 -5 35 -10z m-1580 -19 c0 -10 -50 -25 -58 -17
-3 3 6 10 19 15 31 13 39 13 39 2z m1666 -12 c3 -5 1 -9 -5 -9 -17 0 -41 12
-41 20 0 10 38 1 46 -11z m-1756 -17 c0 -5 -11 -14 -25 -20 -31 -14 -33 1 -2
16 28 14 27 13 27 4z m1850 -22 c0 -5 -13 -4 -30 1 -16 6 -30 15 -30 19 0 5
14 4 30 -1 17 -6 30 -15 30 -19z m-1935 -19 c-6 -5 -21 -12 -35 -15 -24 -7
-24 -6 -6 8 21 17 57 23 41 7z m2001 -7 c18 -14 18 -15 -6 -8 -31 8 -50 24
-29 24 8 0 24 -7 35 -16z m-2076 -22 c0 -10 -50 -35 -57 -28 -3 2 8 11 24 20
34 18 33 18 33 8z m2169 -18 c2 -2 2 -7 -1 -10 -4 -3 -19 2 -35 11 l-28 16 30
-6 c16 -4 32 -9 34 -11z m-2249 -22 c0 -10 -50 -35 -57 -28 -3 2 8 11 24 20
34 18 33 18 33 8z m2327 -29 c-8 -7 -56 20 -51 28 3 5 16 1 30 -7 13 -9 23
-19 21 -21z m-2421 -29 c-11 -8 -27 -14 -35 -14 -10 0 -4 8 14 20 33 21 51 17
21 -6z m2488 1 c30 -23 14 -27 -19 -5 -17 11 -23 20 -15 20 8 -1 24 -7 34 -15z
m-2554 -33 c0 -5 -11 -14 -25 -20 -31 -14 -33 1 -2 16 28 14 27 13 27 4z
m2630 -12 c14 -11 22 -20 18 -20 -14 0 -58 23 -58 32 0 13 13 9 40 -12z
m-2720 -50 c-33 -26 -52 -25 -21 0 13 11 28 20 35 20 6 0 0 -9 -14 -20z m2805
-10 c3 -6 3 -10 -2 -10 -11 1 -43 26 -43 34 0 9 37 -11 45 -24z m-2865 -26 c0
-9 -32 -33 -44 -34 -5 0 -1 9 9 20 18 20 35 26 35 14z m2927 -14 c17 -13 20
-20 11 -20 -8 0 -23 9 -33 20 -10 11 -15 20 -11 20 4 0 19 -9 33 -20z m-3018
-59 c-13 -11 -26 -17 -29 -14 -3 2 6 13 19 24 13 11 26 17 29 15 3 -3 -6 -14
-19 -25z m3096 -1 c10 -11 15 -20 11 -20 -4 0 -19 9 -33 20 -17 13 -20 20 -11
20 8 0 23 -9 33 -20z m-3160 -50 c-10 -11 -23 -20 -28 -20 -6 0 -2 9 8 20 10
11 23 20 28 20 6 0 2 -9 -8 -20z m3220 0 c27 -30 12 -34 -15 -5 -13 14 -19 25
-13 25 5 0 18 -9 28 -20z m-3290 -60 c-10 -11 -23 -20 -28 -20 -6 0 -2 9 8 20
10 11 23 20 28 20 6 0 2 -9 -8 -20z m3360 0 c27 -30 12 -34 -15 -5 -13 14 -19
25 -13 25 5 0 18 -9 28 -20z m-3420 -60 c-10 -11 -23 -20 -28 -20 -6 0 -2 9 8
20 10 11 23 20 28 20 6 0 2 -9 -8 -20z m3505 -22 c0 -5 -3 -8 -7 -8 -10 0 -43
32 -43 42 0 11 49 -24 50 -34z m-3575 -48 c-10 -11 -23 -20 -28 -20 -6 0 0 11
13 25 27 29 42 25 15 -5z m3630 -18 c-7 -7 -45 29 -45 41 0 6 11 0 25 -13 14
-13 23 -26 20 -28z m-3690 -42 c-10 -11 -23 -20 -28 -20 -6 0 0 11 13 25 27
29 42 25 15 -5z m3740 0 c27 -30 12 -34 -15 -5 -13 14 -19 25 -13 25 5 0 18
-9 28 -20z m-3800 -70 c-10 -11 -23 -20 -28 -20 -6 0 0 11 13 25 27 29 42 25
15 -5z m3860 0 c27 -30 12 -34 -15 -5 -13 14 -19 25 -13 25 5 0 18 -9 28 -20z
m-3917 -69 c-7 -12 -16 -21 -21 -21 -8 0 -2 14 16 38 16 20 20 6 5 -17z m3982
-25 c0 -6 -9 0 -20 14 -26 33 -25 52 0 21 11 -13 20 -28 20 -35z m-4036 -51
c-10 -16 -20 -23 -22 -16 -4 12 28 55 35 47 3 -2 -3 -17 -13 -31z m4084 -3
c20 -31 1 -27 -22 5 -12 16 -14 24 -6 21 7 -2 20 -14 28 -26z m-4134 -67 c-9
-14 -19 -24 -21 -21 -7 7 16 46 28 46 5 0 2 -11 -7 -25z m4189 -25 c-6 -6 -33
30 -33 44 0 6 9 0 20 -14 10 -14 16 -27 13 -30z m-4238 -51 c-9 -17 -19 -29
-21 -26 -7 7 18 57 28 57 5 0 1 -14 -7 -31z m4289 -29 c-8 -7 -34 31 -34 49 0
10 8 4 20 -14 10 -16 17 -32 14 -35z m-4334 -49 c-6 -12 -15 -21 -21 -21 -10
0 -5 13 14 38 15 19 20 7 7 -17z m4368 4 c17 -38 14 -43 -8 -15 -21 27 -25 40
-12 40 5 0 14 -11 20 -25z m-4410 -80 c-6 -14 -15 -25 -19 -25 -5 0 -3 11 3
25 6 14 15 25 19 25 5 0 3 -11 -3 -25z m4461 -25 c0 -11 -3 -10 -14 4 -8 11
-15 27 -15 35 0 11 4 10 15 -5 8 -10 14 -26 14 -34z m-4501 -55 c-6 -14 -15
-25 -19 -25 -5 0 -3 11 3 25 6 14 15 25 19 25 5 0 3 -11 -3 -25z m4536 -15 c7
-24 6 -24 -8 -6 -9 11 -16 27 -16 35 0 21 16 2 24 -29z m-4576 -71 c-6 -16
-13 -28 -15 -25 -8 8 6 56 17 56 5 0 5 -13 -2 -31z m4611 1 c5 -16 6 -30 1
-30 -4 0 -13 14 -19 30 -5 17 -6 30 -1 30 4 0 13 -13 19 -30z m-4645 -84 c-3
-14 -10 -26 -15 -26 -12 0 -11 4 3 35 14 31 21 26 12 -9z m4680 -6 c7 -24 6
-24 -8 -6 -9 11 -16 27 -16 35 0 21 16 2 24 -29z m-4710 -74 c-3 -14 -10 -26
-15 -26 -11 0 -11 3 1 36 13 33 23 26 14 -10z m4740 -2 c9 -36 -1 -43 -14 -10
-12 33 -12 36 -1 36 5 0 12 -12 15 -26z m-4770 -88 c-3 -14 -10 -26 -15 -26
-5 0 -6 7 -4 15 3 8 7 22 10 31 9 27 17 9 9 -20z m4801 -3 c4 -14 2 -23 -4
-23 -6 0 -11 3 -11 8 0 4 -3 18 -6 32 -8 31 11 16 21 -17z m-4823 -78 c-2 -14
-8 -28 -13 -31 -10 -6 -11 2 -3 34 9 30 22 28 16 -3z m4848 -20 c0 -17 -2 -17
-10 -5 -5 8 -10 24 -10 35 0 17 2 17 10 5 5 -8 10 -24 10 -35z m-4879 -88
c-13 -13 -15 11 -4 40 7 16 8 15 11 -6 2 -13 -1 -28 -7 -34z m4899 5 c0 -21
-2 -24 -10 -12 -13 20 -13 53 0 45 6 -3 10 -18 10 -33z m-4914 -89 c-10 -26
-18 -8 -9 23 5 21 8 24 11 11 2 -10 1 -25 -2 -34z m4934 -3 c0 -20 -2 -22 -10
-10 -5 8 -10 26 -10 40 0 20 2 22 10 10 5 -8 10 -26 10 -40z m-4946 -67 c-10
-40 -14 -41 -14 -5 0 18 5 32 10 32 6 0 8 -11 4 -27z m4958 -3 c3 -16 1 -30
-4 -30 -4 0 -8 6 -8 14 0 8 -3 21 -6 30 -3 9 -2 16 4 16 5 0 12 -13 14 -30z
m-4976 -118 c-11 -10 -14 3 -8 33 l7 30 3 -28 c2 -16 1 -31 -2 -35z m4993 11
c1 -7 -3 -13 -9 -13 -5 0 -10 15 -9 33 0 27 2 29 9 12 5 -11 9 -26 9 -32z
m-5002 -90 c-3 -10 -5 -2 -5 17 0 19 2 27 5 18 2 -10 2 -26 0 -35z m5007 15
c4 -17 2 -28 -4 -28 -5 0 -10 14 -10 32 0 36 4 35 14 -4z m-5004 -82 c0 -14
-4 -28 -10 -31 -6 -4 -10 7 -10 24 0 17 5 31 10 31 6 0 10 -11 10 -24z m5009
-8 c0 -28 -2 -30 -9 -13 -12 28 -12 45 0 45 6 0 10 -15 9 -32z m-5022 -100
c-2 -13 -4 -5 -4 17 -1 22 1 32 4 23 2 -10 2 -28 0 -40z m5020 -5 c-3 -10 -5
-2 -5 17 0 19 2 27 5 18 2 -10 2 -26 0 -35z m-5020 -85 c-2 -13 -4 -5 -4 17
-1 22 1 32 4 23 2 -10 2 -28 0 -40z m5020 -5 c-3 -10 -5 -2 -5 17 0 19 2 27 5
18 2 -10 2 -26 0 -35z m-5007 -74 c0 -16 -4 -29 -10 -29 -5 0 -10 16 -10 36 0
21 4 33 10 29 6 -3 10 -19 10 -36z m5010 1 c0 -16 -4 -30 -10 -30 -11 0 -14
43 -3 53 11 12 13 8 13 -23z m-5008 -80 c3 -17 1 -33 -4 -36 -4 -3 -8 11 -8
30 0 44 6 47 12 6z m4998 -10 c0 -16 -4 -30 -8 -30 -5 0 -7 14 -4 30 2 17 6
30 8 30 2 0 4 -13 4 -30z m-4988 -80 c3 -17 1 -33 -4 -36 -4 -3 -8 11 -8 30 0
44 6 47 12 6z m4980 -10 c-2 -16 -7 -30 -11 -30 -4 0 -6 14 -3 30 2 17 7 30
11 30 4 0 6 -13 3 -30z m-4963 -103 c1 -10 -3 -15 -9 -12 -5 3 -10 21 -9 38 0
27 2 29 9 12 5 -11 9 -28 9 -38z m4942 -10 c-13 -13 -15 11 -4 40 7 16 8 15
11 -6 2 -13 -1 -28 -7 -34z m-4929 -57 c3 -16 1 -30 -4 -30 -4 0 -8 6 -8 14 0
8 -3 21 -6 30 -3 9 -2 16 4 16 5 0 12 -13 14 -30z m4922 -7 c-7 -31 -12 -38
-18 -32 -7 7 6 59 15 59 5 0 6 -12 3 -27z m-4902 -83 c3 -16 1 -30 -4 -30 -4
0 -8 3 -8 8 0 4 -3 17 -6 30 -4 12 -2 22 4 22 5 0 12 -13 14 -30z m4882 -4
c-3 -14 -10 -26 -15 -26 -5 0 -6 7 -4 15 3 8 7 22 10 31 9 27 17 9 9 -20z
m-4860 -82 c9 -36 -1 -43 -14 -10 -12 33 -12 36 -1 36 5 0 12 -12 15 -26z
m4846 22 c0 -14 -21 -58 -26 -54 -8 8 7 58 17 58 5 0 9 -2 9 -4z m-4816 -136
c-8 -7 -24 24 -23 45 0 15 4 13 14 -10 7 -16 11 -32 9 -35z m4780 16 c-3 -14
-10 -26 -15 -26 -11 0 -11 3 1 36 13 33 23 26 14 -10z m-4755 -76 c5 -16 6
-30 1 -30 -4 0 -13 14 -19 30 -5 17 -6 30 -1 30 4 0 13 -13 19 -30z m4727 -5
c-4 -14 -11 -25 -16 -25 -5 0 -5 13 2 31 12 35 23 31 14 -6z m-4692 -105 c-8
-7 -24 24 -23 45 0 15 4 13 14 -10 7 -16 11 -32 9 -35z m4656 10 c-16 -31 -23
-19 -9 16 6 16 13 24 16 17 2 -7 -1 -22 -7 -33z m-4626 -62 c10 -38 6 -45 -9
-18 -17 29 -18 40 -6 40 5 0 11 -10 15 -22z m4606 15 c-1 -13 -29 -59 -30 -48
0 21 13 55 21 55 5 0 9 -3 9 -7z m-4560 -122 c0 -21 -16 -2 -24 29 -7 24 -6
24 8 6 9 -11 16 -27 16 -35z m4509 7 c-7 -13 -14 -18 -16 -11 -3 7 1 22 8 35
7 13 14 18 16 11 3 -7 -1 -22 -8 -35z m-4469 -87 c-1 -10 -6 -7 -15 9 -19 33
-18 50 0 26 8 -11 15 -27 15 -35z m4426 7 c-19 -26 -22 -7 -4 25 7 13 13 17
15 10 3 -7 -3 -23 -11 -35z m-4382 -87 c-7 -7 -34 28 -34 43 1 6 10 0 21 -13
11 -13 17 -27 13 -30z m4342 13 c-10 -14 -20 -23 -23 -20 -3 3 2 17 11 32 10
14 20 23 23 20 3 -3 -2 -17 -11 -32z m-4306 -65 c17 -30 6 -34 -14 -4 -9 14
-12 25 -7 25 6 0 15 -9 21 -21z m4260 -8 c-6 -12 -15 -21 -21 -21 -5 0 -2 11
7 25 20 30 31 26 14 -4z m-4210 -66 c19 -36 7 -40 -14 -5 -9 17 -13 30 -8 30
5 0 15 -11 22 -25z m4160 -10 c-7 -14 -17 -25 -22 -25 -5 0 -1 13 8 30 21 35
33 31 14 -5z m-4102 -73 c20 -31 1 -27 -22 5 -12 16 -14 24 -6 21 7 -2 20 -14
28 -26z m4055 3 c-18 -25 -40 -35 -27 -12 14 24 27 37 36 37 5 0 1 -11 -9 -25z
m-3993 -88 c0 -6 -9 -2 -20 8 -11 10 -20 23 -20 28 0 6 9 2 20 -8 11 -10 20
-23 20 -28z m3935 13 c-10 -11 -20 -18 -23 -15 -3 3 3 14 13 25 10 11 20 18
23 15 3 -3 -3 -14 -13 -25z m-3893 -57 c18 -16 24 -33 11 -33 -10 1 -46 50
-37 50 4 0 16 -7 26 -17z m3841 -8 c-18 -25 -40 -35 -27 -12 14 24 27 37 36
37 5 0 1 -11 -9 -25z m-3778 -65 c27 -30 12 -34 -15 -5 -13 14 -19 25 -13 25
5 0 18 -9 28 -20z m3715 -5 c-13 -14 -26 -23 -28 -20 -7 7 29 45 41 45 6 0 0
-11 -13 -25z m-3658 -52 c10 -9 18 -20 18 -25 0 -16 -18 -8 -34 17 -19 29 -11
33 16 8z m3598 -18 c-21 -26 -31 -16 -13 11 9 15 19 21 21 15 2 -6 -2 -18 -8
-26z m-3525 -55 c10 -11 14 -20 8 -20 -5 0 -18 9 -28 20 -10 11 -14 20 -8 20
5 0 18 -9 28 -20z m3475 14 c0 -9 -32 -33 -44 -34 -5 0 -1 9 9 20 18 20 35 26
35 14z m-3415 -74 c10 -11 14 -20 8 -20 -5 0 -18 9 -28 20 -10 11 -14 20 -8
20 5 0 18 -9 28 -20z m3335 -5 c-13 -14 -26 -23 -28 -20 -7 7 29 45 41 45 6 0
0 -11 -13 -25z m-3265 -55 c10 -11 14 -20 8 -20 -5 0 -18 9 -28 20 -10 11 -14
20 -8 20 5 0 18 -9 28 -20z m3200 0 c-10 -11 -23 -20 -28 -20 -6 0 -2 9 8 20
10 11 23 20 28 20 6 0 2 -9 -8 -20z m-3115 -71 c0 -5 -11 -2 -25 7 -14 9 -25
20 -25 25 0 5 11 2 25 -7 14 -9 25 -20 25 -25z m3041 10 c-13 -11 -27 -17 -30
-13 -7 7 28 34 43 34 6 -1 0 -10 -13 -21z m-2987 -44 c11 -8 17 -17 14 -20 -3
-3 -16 3 -29 14 -27 23 -14 28 15 6z m2917 -5 c-13 -11 -28 -20 -35 -20 -6 0
0 9 14 20 33 26 52 25 21 0z m-2840 -50 c31 -25 12 -26 -21 0 -14 11 -20 20
-14 20 7 0 22 -9 35 -20z m2763 -5 c-29 -22 -42 -17 -15 6 13 11 26 17 29 14
3 -3 -3 -12 -14 -20z m-2688 -39 c10 -8 16 -17 13 -20 -3 -4 -17 2 -30 13 -27
23 -13 28 17 7z m2615 -6 c-13 -11 -28 -20 -35 -20 -6 1 0 10 13 20 13 11 28
20 35 20 6 -1 0 -10 -13 -20z m-2525 -57 c-7 -7 -46 16 -46 28 0 5 11 2 25 -7
14 -9 24 -19 21 -21z m2450 12 c-11 -8 -27 -15 -35 -15 -10 1 -7 6 9 15 33 19
50 18 26 0z m-2380 -40 c14 -11 15 -14 4 -14 -8 0 -24 6 -34 14 -15 11 -16 15
-5 15 8 0 24 -7 35 -15z m2314 7 c0 -5 -11 -14 -25 -20 -28 -13 -35 1 -7 17
21 13 32 14 32 3z m-2234 -48 c18 -14 18 -15 -6 -8 -31 8 -50 24 -29 24 8 0
24 -7 35 -16z m2154 7 c0 -10 -25 -21 -48 -21 -12 1 -10 5 8 15 29 17 40 18
40 6z m-2076 -37 c17 -6 22 -24 8 -24 -5 0 -17 7 -28 15 -19 15 -8 20 20 9z
m1982 -9 c-11 -8 -27 -15 -35 -15 -13 1 -12 4 3 15 11 8 27 15 35 15 13 -1 12
-4 -3 -15z m-1896 -30 c27 -15 20 -19 -17 -9 -13 4 -23 10 -23 15 0 12 11 11
40 -6z m1830 5 c0 -5 -3 -10 -7 -10 -5 0 -19 -3 -33 -6 l-25 -5 25 15 c30 18
40 20 40 6z m-1754 -30 c15 -6 24 -13 22 -16 -8 -8 -58 7 -58 17 0 11 3 11 36
-1z m1654 -10 c-8 -6 -24 -9 -35 -9 -15 0 -13 4 10 14 32 14 49 10 25 -5z
m-1564 -20 c15 -6 24 -13 22 -16 -8 -8 -58 7 -58 17 0 11 3 11 36 -1z m1494 1
c0 -10 -50 -25 -58 -17 -3 3 6 10 19 15 31 13 39 13 39 2z m-1395 -31 c18 -8
18 -9 -5 -9 -14 0 -32 4 -40 9 -12 8 -12 10 5 9 11 0 29 -4 40 -9z m1300 0
c-3 -5 -18 -10 -33 -9 -24 0 -25 1 -7 9 28 12 47 12 40 0z m-1215 -20 c12 -8
9 -10 -12 -10 -15 0 -30 5 -33 10 -8 13 25 13 45 0z m1136 1 c-8 -12 -55 -20
-61 -10 -3 4 5 10 17 12 40 8 49 7 44 -2z m-1046 -21 c12 -8 9 -10 -12 -10
-15 0 -30 5 -33 10 -8 13 25 13 45 0z m955 0 c-3 -5 -18 -10 -33 -10 -21 0
-24 2 -12 10 20 13 53 13 45 0z m-855 -22 c0 -6 -7 -7 -16 -4 -9 3 -22 6 -30
6 -8 0 -14 4 -14 8 0 5 14 7 30 4 17 -2 30 -9 30 -14z m769 8 c-12 -10 -59
-15 -59 -6 0 5 14 10 32 10 17 0 29 -2 27 -4z m-679 -16 c0 -12 -27 -12 -55 0
-16 7 -13 9 18 9 20 1 37 -3 37 -9z m580 0 c-20 -13 -50 -13 -50 0 0 6 15 10
33 10 24 0 28 -3 17 -10z m-496 -10 c-6 -6 -21 -6 -39 -1 -30 9 -30 9 10 10
25 1 36 -2 29 -9z m81 0 c16 -7 12 -9 -18 -9 -23 -1 -36 3 -32 9 7 12 23 12
50 0z m245 0 c0 -5 -15 -10 -32 -9 -31 1 -32 1 -8 9 35 11 40 11 40 0z m75 0
c-28 -12 -45 -12 -45 0 0 6 15 10 33 9 27 0 29 -2 12 -9z m-192 -7 c-18 -2
-48 -2 -65 0 -18 2 -4 4 32 4 36 0 50 -2 33 -4z"/>
</g>
</svg>
